<svg width="341" height="430" viewBox="0 0 341 430" fill="none" xmlns="http://www.w3.org/2000/svg">
<path d="M254.529 115.183C223.362 99.9049 139.205 86.1622 102.767 81.4814C102.767 81.4814 75.8277 86.4047 59.1569 91.5919C41.1341 97.1998 14.9656 109.566 14.9656 109.566C7.40663 112.936 120.017 134.655 167.309 143.267C226.851 128.888 258.017 117.991 254.529 115.183Z" fill="#FCFFFF" stroke="black" stroke-width="13.3897"/>
<path d="M15.2311 110.904C15.224 110.969 15.217 111.033 15.2099 111.098C20.861 113.709 142.281 141.91 168.381 144.053C174.183 144.53 195.167 138.435 256.893 117.085C262.716 112.028 256.893 390.143 252.817 395.2C248.741 400.256 224.866 421.045 168.381 422.73C123.193 424.079 11.7372 395.2 15.2311 390.143C0.340738 302.595 8.99996 167.771 15.2099 111.098C14.9351 110.971 14.934 110.904 15.2311 110.904Z" fill="black"/>
<path d="M15.2311 110.904C9.01972 167.464 0.323768 302.495 15.2311 390.143C11.7372 395.2 123.193 424.079 168.381 422.73C224.866 421.045 248.741 400.256 252.817 395.2C256.893 390.143 262.716 112.028 256.893 117.085C195.167 138.435 174.183 144.53 168.381 144.053C141.012 141.806 8.82561 110.904 15.2311 110.904Z" stroke="black" stroke-width="13.3897"/>
<path d="M54.1255 94.7217L209.185 132.97" stroke="black" stroke-width="6.69486"/>
<path d="M227.44 28.9516L206.56 114.407C196.986 121.075 188.377 116.226 185.269 112.968C191.733 88.2588 205.49 34.7826 208.802 18.5474C212.113 2.31229 230.465 2.48634 239.227 4.60275C239.227 4.60275 329.033 41.3827 332.025 45.1218C335.016 48.861 331.277 60.8262 324.546 60.8262L233.962 21.9631C233.699 25.6029 229.504 28.1387 227.44 28.9516Z" fill="black" stroke="black" stroke-width="6.69486" stroke-linecap="round" stroke-linejoin="round"/>
<path d="M13.3281 240.36L94.2456 150.49L67.2731 211.473H139.2L40.3006 371.956L82.2578 246.78L13.3281 240.36Z" fill="#FCFFFF" stroke="black" stroke-width="4.78666" stroke-linecap="round" stroke-linejoin="round"/>
<path d="M159.541 421.479C159.541 421.479 170.492 78.0264 157.031 164.774C143.57 251.522 165.551 404.029 102.439 412.754C126.482 421.479 145.516 422.448 159.541 421.479Z" fill="#FCFFFF"/>
<path d="M222.291 201.419L174.232 151.941L214.615 138.54L254.998 125.14L227.631 201.419H222.291Z" fill="#FCFFFF" stroke="#FCFFFF" stroke-width="5.98264" stroke-linecap="round" stroke-linejoin="round"/>
<path d="M211.624 128.131L225.085 208.897" stroke="black" stroke-width="5.98264"/>
<ellipse cx="329.408" cy="53.6212" rx="7.15618" ry="11.7913" transform="rotate(25.9338 329.408 53.6212)" fill="black"/>
</svg>
